<svg viewBox="0 0 22 22" fill="none" xmlns="http://www.w3.org/2000/svg">
    <path d="M20.7099 7.71005C21.9599 6.46005 21.3899 5.00005 20.7099 4.29005L17.7099 1.29005C16.4499 0.0400511 14.9999 0.610051 14.2899 1.29005L12.5899 3.00005H9.99993C8.09993 3.00005 6.99993 4.00005 6.43993 5.15005L1.99993 9.59005V13.5901L1.28993 14.2901C0.039929 15.5501 0.609929 17.0001 1.28993 17.7101L4.28993 20.7101C4.82993 21.2501 5.40993 21.4501 5.95993 21.4501C6.66993 21.4501 7.31993 21.1001 7.70993 20.7101L10.4099 18.0001H13.9999C15.6999 18.0001 16.5599 16.9401 16.8699 15.9001C17.9999 15.6001 18.6199 14.7401 18.8699 13.9001C20.4199 13.5001 20.9999 12.0301 20.9999 11.0001V8.00005H20.4099L20.7099 7.71005ZM18.9999 11.0001C18.9999 11.4501 18.8099 12.0001 17.9999 12.0001H16.9999V13.0001C16.9999 13.4501 16.8099 14.0001 15.9999 14.0001H14.9999V15.0001C14.9999 15.4501 14.8099 16.0001 13.9999 16.0001H9.58993L6.30993 19.2801C5.99993 19.5701 5.81993 19.4001 5.70993 19.2901L2.71993 16.3101C2.42993 16.0001 2.59993 15.8201 2.70993 15.7101L3.99993 14.4101V10.4101L5.99993 8.41005V10.0001C5.99993 11.2101 6.79993 13.0001 8.99993 13.0001C11.1999 13.0001 11.9999 11.2101 11.9999 10.0001H18.9999V11.0001ZM19.2899 6.29005L17.5899 8.00005H9.99993V10.0001C9.99993 10.4501 9.80993 11.0001 8.99993 11.0001C8.18993 11.0001 7.99993 10.4501 7.99993 10.0001V7.00005C7.99993 6.54005 8.16993 5.00005 9.99993 5.00005H13.4099L15.6899 2.72005C15.9999 2.43005 16.1799 2.60005 16.2899 2.71005L19.2799 5.69005C19.5699 6.00005 19.3999 6.18005 19.2899 6.29005Z" fill="white"/>
</svg>