<svg viewBox="0 0 15 18" fill="none" xmlns="http://www.w3.org/2000/svg">
    <path d="M5.5 5.22463e-05C4.75445 -0.00354765 4.01978 0.178937 3.36256 0.53097C2.70534 0.883003 2.14635 1.39346 1.73623 2.01609C1.32611 2.63871 1.07783 3.35383 1.01388 4.09665C0.949928 4.83946 1.07233 5.58649 1.37 6.27005C0.5 7.12005 0 8.28005 0 9.50005C0 12.0001 2 14.0001 4.5 14.0001C5 14.0001 5.5 13.8901 6 13.7201V18.0001H8V12.7701C8.5 12.9101 9 13.0001 9.5 13.0001C10.2223 13.0001 10.9375 12.8578 11.6048 12.5814C12.272 12.305 12.8784 11.8999 13.3891 11.3891C13.8998 10.8784 14.3049 10.2721 14.5813 9.60481C14.8577 8.93752 15 8.22232 15 7.50005C15 6.77778 14.8577 6.06258 14.5813 5.39529C14.3049 4.728 13.8998 4.12169 13.3891 3.61097C12.8784 3.10024 12.272 2.69512 11.6048 2.41871C10.9375 2.14231 10.2223 2.00005 9.5 2.00005H9.24C8.41 0.760052 7 5.22463e-05 5.5 5.22463e-05ZM5.5 2.00005C6.82 2.00005 7.91 3.03005 8 4.35005C8.46 4.12005 9 4.00005 9.5 4.00005C10.4283 4.00005 11.3185 4.3688 11.9749 5.02518C12.6313 5.68156 13 6.57179 13 7.50005C13 8.42831 12.6313 9.31855 11.9749 9.97493C11.3185 10.6313 10.4283 11.0001 9.5 11.0001C8.54 11.0001 7.63 10.6101 6.96 9.91005C6.8648 10.4937 6.56503 11.0245 6.11433 11.4074C5.66363 11.7903 5.0914 12.0004 4.5 12.0001C3.83696 12.0001 3.20107 11.7367 2.73223 11.2678C2.26339 10.799 2 10.1631 2 9.50005C2 8.12005 2.8 7.54005 4 6.79005C3.2 5.76005 3 5.16005 3 4.50005C3 3.83701 3.26339 3.20113 3.73223 2.73229C4.20107 2.26344 4.83696 2.00005 5.5 2.00005Z" fill="white"/>
</svg>