<svg viewBox="0 0 18 18" fill="none" xmlns="http://www.w3.org/2000/svg">
    <path d="M4 18V16H8V12.9C7.18333 12.7167 6.454 12.3707 5.812 11.862C5.17 11.3533 4.69933 10.716 4.4 9.95C3.15 9.8 2.104 9.25433 1.262 8.313C0.420001 7.37167 -0.000665876 6.26733 7.91139e-07 5V4C7.91139e-07 3.45 0.196001 2.979 0.588001 2.587C0.980001 2.195 1.45067 1.99933 2 2H4V0H14V2H16C16.55 2 17.021 2.196 17.413 2.588C17.805 2.98 18.0007 3.45067 18 4V5C18 6.26667 17.579 7.371 16.737 8.313C15.895 9.255 14.8493 9.80067 13.6 9.95C13.3 10.7167 12.829 11.3543 12.187 11.863C11.545 12.3717 10.816 12.7173 10 12.9V16H14V18H4ZM4 7.8V4H2V5C2 5.63333 2.18333 6.20433 2.55 6.713C2.91667 7.22167 3.4 7.584 4 7.8ZM9 11C9.83333 11 10.5417 10.7083 11.125 10.125C11.7083 9.54167 12 8.83333 12 8V2H6V8C6 8.83333 6.29167 9.54167 6.875 10.125C7.45833 10.7083 8.16667 11 9 11ZM14 7.8C14.6 7.58333 15.0833 7.22067 15.45 6.712C15.8167 6.20333 16 5.63267 16 5V4H14V7.8Z" fill="white"/>
</svg>